<svg width="23" height="23" viewBox="0 0 23 23" fill="none" xmlns="http://www.w3.org/2000/svg">
<path d="M10.8023 0.405159C10.5775 0.492453 10.3721 0.623344 10.1978 0.790321L1.03872 9.9608C0.867928 10.1318 0.732445 10.3348 0.64001 10.5583C0.547576 10.7817 0.5 11.0212 0.5 11.263C0.5 11.7514 0.693785 12.2198 1.03872 12.5652C1.20952 12.7362 1.41229 12.8719 1.63544 12.9644C1.8586 13.057 2.09778 13.1046 2.33932 13.1046C2.82714 13.1046 3.29497 12.9106 3.63991 12.5652L9.66661 6.5127V20.4335C9.66661 20.9199 9.85961 21.3864 10.2031 21.7304C10.5467 22.0743 11.0126 22.2676 11.4984 22.2676C11.9843 22.2676 12.4502 22.0743 12.7937 21.7304C13.1373 21.3864 13.3303 20.9199 13.3303 20.4335V6.5127L19.357 12.5652C19.5273 12.7371 19.7299 12.8736 19.9531 12.9667C20.1763 13.0598 20.4157 13.1077 20.6576 13.1077C20.8994 13.1077 21.1388 13.0598 21.362 12.9667C21.5853 12.8736 21.7879 12.7371 21.9581 12.5652C22.1298 12.3947 22.2661 12.1919 22.3591 11.9684C22.4521 11.7449 22.5 11.5051 22.5 11.263C22.5 11.0209 22.4521 10.7812 22.3591 10.5577C22.2661 10.3342 22.1298 10.1313 21.9581 9.9608L12.799 0.790321C12.6248 0.623344 12.4194 0.492453 12.1945 0.405159C11.7486 0.221718 11.2483 0.221718 10.8023 0.405159Z" fill="black"/>
</svg>
