<svg width="35" height="35" viewBox="0 0 35 35" fill="none" xmlns="http://www.w3.org/2000/svg">
<g clip-path="url(#clip0_1669_70)">
<path d="M30.625 0H4.375C1.95875 0 0 1.95875 0 4.375V30.625C0 33.0412 1.95875 35 4.375 35H30.625C33.0412 35 35 33.0412 35 30.625V4.375C35 1.95875 33.0412 0 30.625 0Z" fill="#7B519D"/>
<path fill-rule="evenodd" clip-rule="evenodd" d="M28.8422 23.6152C28.0084 22.9439 27.1173 22.3414 26.2402 21.7259C24.4909 20.4973 22.8909 20.4018 21.5855 22.3784C20.8525 23.4882 19.8264 23.5368 18.7534 23.0499C15.7955 21.7087 13.5114 19.6422 12.1735 16.6358C11.5816 15.3056 11.5894 14.1131 12.9742 13.1724C13.7073 12.6748 14.4459 12.0861 14.3869 10.999C14.3098 9.58151 10.8681 4.84441 9.50896 4.34443C8.94657 4.1375 8.3865 4.15097 7.81433 4.34326C4.62742 5.415 3.3074 8.03597 4.57157 11.1393C8.34296 20.3981 14.98 26.8437 24.1162 30.7778C24.6371 31.0018 25.2158 31.0913 25.5087 31.1717C27.5888 31.1926 30.0255 29.1886 30.7291 27.1998C31.4067 25.2864 29.9748 24.5269 28.8422 23.6152ZM18.5982 5.29367C25.2774 6.32077 28.3578 9.49674 29.2083 16.224C29.2872 16.8454 29.0557 17.7804 29.9423 17.7976C30.8688 17.8153 30.6455 16.8941 30.6533 16.2721C30.7317 9.93629 25.2072 4.06272 18.7913 3.84616C18.3073 3.91581 17.3057 3.51236 17.2432 4.59729C17.2016 5.32873 18.0449 5.20856 18.5982 5.29367Z" fill="white"/>
<path fill-rule="evenodd" clip-rule="evenodd" d="M19.905 7.13822C19.2626 7.06084 18.4145 6.75814 18.2643 7.64955C18.1076 8.58518 19.0529 8.49016 19.6602 8.62613C23.7855 9.54809 25.2218 11.0495 25.9011 15.1415C26.0002 15.7381 25.8032 16.6666 26.817 16.5128C27.5683 16.3983 27.2969 15.6024 27.3598 15.1375C27.3931 11.2089 24.0267 7.63314 19.905 7.13822Z" fill="white"/>
<path fill-rule="evenodd" clip-rule="evenodd" d="M20.2838 10.3508C19.855 10.3614 19.4341 10.4078 19.2765 10.8661C19.0398 11.551 19.5378 11.7144 20.0446 11.7958C21.7369 12.0674 22.6275 13.0653 22.7965 14.7528C22.8422 15.2108 23.1329 15.5819 23.5753 15.5297C24.1884 15.4566 24.2438 14.9108 24.225 14.3926C24.2553 12.4967 22.1125 10.3054 20.2838 10.3508Z" fill="white"/>
</g>
<defs>
<clipPath id="clip0_1669_70">
<rect width="35" height="35" fill="white"/>
</clipPath>
</defs>
</svg>
