<svg width="17" height="18" viewBox="0 0 17 18" fill="none" xmlns="http://www.w3.org/2000/svg">
<path d="M16.0555 5.41506L10.3889 0.686717C9.86944 0.244487 9.19696 0 8.50003 0C7.8031 0 7.13062 0.244487 6.61115 0.686717L0.944527 5.41506C0.644544 5.67042 0.405159 5.98368 0.242311 6.33398C0.0794636 6.68428 -0.00310962 7.06358 8.95271e-05 7.44663V15.3032C8.95271e-05 16.0185 0.298599 16.7044 0.829948 17.2101C1.3613 17.7159 2.08196 18 2.8334 18H14.1667C14.9181 18 15.6388 17.7159 16.1701 17.2101C16.7015 16.7044 17 16.0185 17 15.3032V7.43764C17.0018 7.0561 16.9186 6.67853 16.7558 6.32988C16.593 5.98122 16.3543 5.66942 16.0555 5.41506ZM10.3889 16.2022H6.61115V11.7075C6.61115 11.4691 6.71066 11.2405 6.88777 11.0719C7.06489 10.9033 7.30511 10.8086 7.55559 10.8086H9.44447C9.69495 10.8086 9.93517 10.9033 10.1123 11.0719C10.2894 11.2405 10.3889 11.4691 10.3889 11.7075V16.2022ZM15.1111 15.3032C15.1111 15.5416 15.0116 15.7703 14.8345 15.9389C14.6574 16.1074 14.4171 16.2022 14.1667 16.2022H12.2778V11.7075C12.2778 10.9923 11.9793 10.3064 11.4479 9.80062C10.9166 9.29488 10.1959 9.01076 9.44447 9.01076H7.55559C6.80415 9.01076 6.08349 9.29488 5.55214 9.80062C5.02079 10.3064 4.72228 10.9923 4.72228 11.7075V16.2022H2.8334C2.58292 16.2022 2.3427 16.1074 2.16558 15.9389C1.98847 15.7703 1.88897 15.5416 1.88897 15.3032V7.43764C1.88913 7.31 1.91786 7.18387 1.97323 7.06762C2.02859 6.95138 2.10933 6.84768 2.21007 6.76345L7.8767 2.04409C8.04905 1.89998 8.27062 1.8205 8.50003 1.8205C8.72944 1.8205 8.95101 1.89998 9.12336 2.04409L14.79 6.76345C14.8907 6.84768 14.9715 6.95138 15.0268 7.06762C15.0822 7.18387 15.1109 7.31 15.1111 7.43764V15.3032Z" fill="black"/>
</svg>
