<svg width="25" height="24" viewBox="0 0 25 24" fill="none" xmlns="http://www.w3.org/2000/svg">
<path d="M1.5 12C1.5 4 4.5 1 12.5 1C20.5 1 23.5 4 23.5 12C23.5 20 20.5 23 12.5 23C4.5 23 1.5 20 1.5 12Z" fill="#00984B"/>
<path d="M11.78 11.7V10.7C11.78 10.4136 11.8938 10.1389 12.0963 9.93633C12.2989 9.73379 12.5736 9.62 12.86 9.62H14.42C14.703 9.62005 14.9747 9.50901 15.1767 9.31078C15.3787 9.11254 15.4948 8.84295 15.5 8.56V7.08C15.5 6.79357 15.3862 6.51886 15.1837 6.31632C14.9811 6.11379 14.7064 6 14.42 6H13.5C12.4391 6 11.4217 6.42143 10.6716 7.17157C9.92143 7.92172 9.5 8.93913 9.5 10V14C9.5 15.0609 9.92143 16.0783 10.6716 16.8284C11.4217 17.5786 12.4391 18 13.5 18H14.39C14.5343 18.004 14.678 17.979 14.8125 17.9266C14.947 17.8741 15.0697 17.7952 15.1731 17.6945C15.2766 17.5938 15.3589 17.4734 15.415 17.3403C15.4712 17.2073 15.5001 17.0644 15.5 16.92V15.44C15.5 15.1536 15.3862 14.8789 15.1837 14.6763C14.9811 14.4738 14.7064 14.36 14.42 14.36H12.86C12.5736 14.36 12.2989 14.2462 12.0963 14.0437C11.8938 13.8411 11.78 13.5664 11.78 13.28V11.7Z" fill="white"/>
</svg>
